<svg xmlns="http://www.w3.org/2000/svg" viewBox="0 0 512 512" width="32" height="32">
	<style>
		tspan { white-space:pre }
		.shp0 { fill: #ffffff } 
	</style>
	<g id="Layer">
		<g id="Layer">
			<path id="Layer" class="shp0" d="M247.6 223.35L247.6 235.54C247.6 239.68 250.96 243.04 255.1 243.04C259.25 243.04 262.6 239.68 262.6 235.54L262.6 223.35C262.6 219.21 259.25 215.85 255.1 215.85C250.96 215.85 247.6 219.21 247.6 223.35Z" />
			<path id="Layer" class="shp0" d="M374.48 223.35L374.48 235.54C374.48 239.68 377.84 243.04 381.98 243.04C386.12 243.04 389.48 239.68 389.48 235.54L389.48 223.35C389.48 219.21 386.12 215.85 381.98 215.85C377.84 215.85 374.48 219.21 374.48 223.35Z" />
			<path id="Layer" class="shp0" d="M329.61 230.25C326.82 233.46 322.78 235.3 318.54 235.3C314.3 235.3 310.27 233.46 307.47 230.25C304.75 227.13 300.01 226.8 296.89 229.52C293.77 232.25 293.44 236.98 296.16 240.11C301.81 246.58 309.96 250.3 318.54 250.3C327.12 250.3 335.28 246.58 340.92 240.11C343.64 236.98 343.32 232.25 340.19 229.52C337.07 226.8 332.33 227.13 329.61 230.25L329.61 230.25Z" />
			<path id="Layer" fill-rule="evenodd" class="shp0" d="M432.52 440.84C432.52 456.1 420.1 468.52 404.84 468.52C389.58 468.52 377.16 456.1 377.16 440.84C377.16 425.58 389.58 413.17 404.84 413.17C420.1 413.17 432.52 425.58 432.52 440.84ZM417.52 440.84C417.52 433.85 411.83 428.17 404.84 428.17C397.85 428.17 392.16 433.85 392.16 440.84C392.16 447.83 397.85 453.52 404.84 453.52C411.83 453.52 417.52 447.83 417.52 440.84Z" />
			<path id="Layer" fill-rule="evenodd" class="shp0" d="M239.5 440.84C239.5 456.1 227.08 468.52 211.82 468.52C196.56 468.52 184.14 456.1 184.14 440.84C184.14 425.58 196.56 413.17 211.82 413.17C227.08 413.17 239.5 425.58 239.5 440.84ZM224.5 440.84C224.5 433.85 218.81 428.17 211.82 428.17C204.83 428.17 199.14 433.85 199.14 440.84C199.14 447.83 204.83 453.52 211.82 453.52C218.81 453.52 224.5 447.83 224.5 440.84Z" />
			<path id="Layer" class="shp0" d="M410.34 65.5L441.01 65.5C445.15 65.5 448.51 62.14 448.51 58C448.51 53.85 445.15 50.5 441.01 50.5L410.34 50.5C406.2 50.5 402.84 53.85 402.84 58C402.84 62.14 406.2 65.5 410.34 65.5Z" />
			<path id="Layer" class="shp0" d="M410.34 91.67L441.01 91.67C445.15 91.67 448.51 88.31 448.51 84.17C448.51 80.03 445.15 76.67 441.01 76.67L410.34 76.67C406.2 76.67 402.84 80.03 402.84 84.17C402.84 88.31 406.2 91.67 410.34 91.67Z" />
			<path id="Layer" fill-rule="evenodd" class="shp0" d="M35.43 159.84C15.9 159.84 0 143.94 0 124.4C0 104.86 15.9 88.97 35.43 88.97L85.76 88.97C111.72 88.97 135.41 101.62 150.22 121.52L198.13 71.93L198.13 46.93C198.13 25.43 215.63 7.93 237.13 7.93L296.88 7.93C307.66 7.93 317.42 12.32 324.49 19.41C330.19 19.41 444.09 19.41 448.52 19.41C468.12 19.41 484.06 35.35 484.06 54.95L484.06 126.78C500.01 130.23 512 144.44 512 161.4C512 178.94 499.2 193.53 482.45 196.34L472.82 232.19C471.75 236.2 467.64 238.57 463.64 237.49C459.64 236.42 457.26 232.31 458.34 228.31L466.78 196.84L174.01 196.84L186.41 253.25C187.3 257.29 184.74 261.29 180.7 262.18C180.69 262.18 180.68 262.18 180.68 262.18C176.6 263.07 172.63 260.44 171.76 256.47C171.73 256.33 149.87 157 149.65 155.91C143.29 125.65 116.37 103.97 85.76 103.97L35.43 103.97C24.17 103.97 15 113.13 15 124.4C15 135.67 24.17 144.84 35.43 144.84L85.76 144.84C97.27 144.84 107.31 153.02 109.65 164.28L145.51 327.34C150.49 351.42 166.61 371.58 188.91 381.91C196.1 379.11 203.99 377.62 211.82 377.62C224.64 377.62 237.24 381.43 248.1 389.07L368.56 389.07C379.43 381.43 392.03 377.62 404.84 377.62C417.31 377.62 429.66 381.23 440.42 388.58C449.67 386.54 456.37 378.38 456.37 368.63C456.37 357.37 447.2 348.2 435.93 348.2L221.23 348.2C204.04 348.2 189.03 335.98 185.55 319.15L178.36 286.47C177.41 282.12 180.43 277.91 184.83 277.4C188.61 276.97 192.18 279.45 193.01 283.25L200.22 316.02C202.24 325.78 210.94 333.2 221.23 333.2L430.18 333.2L450.29 258.31C451.36 254.3 455.48 251.93 459.47 253.01C463.47 254.08 465.85 258.19 464.77 262.19L445.37 334.48C460.34 338.63 471.37 352.36 471.37 368.63C471.37 382.09 463.99 393.8 452.87 399.8C462.33 410.85 468.06 425.19 468.06 440.84C468.06 475.71 439.7 504.07 404.84 504.07C369.98 504.07 341.61 475.71 341.61 440.84C341.61 427.13 346.01 414.44 353.46 404.07L263.2 404.07C270.64 414.44 275.04 427.13 275.04 440.84C275.04 475.71 246.68 504.07 211.82 504.07C176.95 504.07 148.59 475.71 148.59 440.84C148.59 420.4 158.35 402.21 173.44 390.64C151.62 377.41 136.06 355.73 130.84 330.48L94.98 167.41C94.06 162.99 90.19 159.84 85.76 159.84L35.43 159.84ZM260.04 440.84C260.04 414.19 238.35 392.62 211.82 392.62C211.8 392.62 211.78 392.62 211.76 392.62C184.79 392.67 163.59 414.68 163.59 440.84C163.59 467.43 185.23 489.07 211.82 489.07C238.41 489.07 260.04 467.43 260.04 440.84ZM453.06 440.84C453.06 414.28 431.46 392.62 404.84 392.62C378.45 392.62 356.61 414.05 356.61 440.84C356.61 467.43 378.25 489.07 404.84 489.07C431.43 489.07 453.06 467.43 453.06 440.84ZM367.24 125.97C349.67 107.79 341.08 98.89 328.39 85.76L289.54 125.97L367.24 125.97ZM166.78 125.97L268.68 125.97C279.9 114.36 300.4 93.13 310.71 82.46L208.81 82.46L166.78 125.97ZM497 161.4C497 150.14 487.83 140.97 476.56 140.97L160.87 140.97C163.4 147.64 164.38 153.23 164.69 154.46L170.71 181.84L476.56 181.84C487.83 181.84 497 172.67 497 161.4ZM469.06 54.95C469.06 43.62 459.85 34.41 448.52 34.41L402.83 34.41C391.5 34.41 382.29 43.62 382.29 54.95L382.29 119.96L388.09 125.97L469.06 125.97L469.06 54.95ZM333.84 34.41C335.23 38.51 335.88 42.84 335.88 46.93C335.88 46.93 335.88 71.93 335.88 71.93L367.29 104.44L367.29 54.95C367.29 47.6 369.58 40.4 373.84 34.41L333.84 34.41ZM213.13 67.46L320.88 67.46L320.88 46.93C320.88 33.77 310.19 22.93 296.88 22.93L237.13 22.93C223.9 22.93 213.13 33.7 213.13 46.93L213.13 67.46Z" />
		</g>
	</g>
</svg>